<?xml version="1.0" encoding="utf-8" standalone="no"?>
<!DOCTYPE svg PUBLIC "-//W3C//DTD SVG 1.1//EN"
  "http://www.w3.org/Graphics/SVG/1.1/DTD/svg11.dtd">
<svg xmlns:xlink="http://www.w3.org/1999/xlink" width="460.8pt" height="345.6pt" viewBox="0 0 460.8 345.6" xmlns="http://www.w3.org/2000/svg" version="1.1">
 <metadata>
  <rdf:RDF xmlns:dc="http://purl.org/dc/elements/1.1/" xmlns:cc="http://creativecommons.org/ns#" xmlns:rdf="http://www.w3.org/1999/02/22-rdf-syntax-ns#">
   <cc:Work>
    <dc:type rdf:resource="http://purl.org/dc/dcmitype/StillImage"/>
    <dc:date>2023-06-29T13:59:27.457437</dc:date>
    <dc:format>image/svg+xml</dc:format>
    <dc:creator>
     <cc:Agent>
      <dc:title>Matplotlib v3.7.1, https://matplotlib.org/</dc:title>
     </cc:Agent>
    </dc:creator>
   </cc:Work>
  </rdf:RDF>
 </metadata>
 <defs>
  <style type="text/css">*{stroke-linejoin: round; stroke-linecap: butt}</style>
 </defs>
 <g id="figure_1">
  <g id="patch_1">
   <path d="M 0 345.6 
L 460.8 345.6 
L 460.8 0 
L 0 0 
z
" style="fill: #ffffff"/>
  </g>
  <g id="axes_1">
   <g id="patch_2">
    <path d="M 57.6 307.584 
L 414.72 307.584 
L 414.72 41.472 
L 57.6 41.472 
z
" style="fill: #ffffff"/>
   </g>
   <g id="matplotlib.axis_1">
    <g id="xtick_1">
     <g id="line2d_1">
      <path d="M 73.832727 307.584 
L 73.832727 41.472 
" clip-path="url(#p2651b96ce2)" style="fill: none; stroke: #b0b0b0; stroke-width: 0.8; stroke-linecap: square"/>
     </g>
     <g id="line2d_2">
      <defs>
       <path id="m6722ca8328" d="M 0 0 
L 0 3.5 
" style="stroke: #000000; stroke-width: 0.8"/>
      </defs>
      <g>
       <use xlink:href="#m6722ca8328" x="73.832727" y="307.584" style="stroke: #000000; stroke-width: 0.8"/>
      </g>
     </g>
     <g id="text_1">
      <!-- $\mathdefault{10^{-3}}$ -->
      <g transform="translate(62.082727 322.182437) scale(0.1 -0.1)">
       <defs>
        <path id="DejaVuSans-31" d="M 794 531 
L 1825 531 
L 1825 4091 
L 703 3866 
L 703 4441 
L 1819 4666 
L 2450 4666 
L 2450 531 
L 3481 531 
L 3481 0 
L 794 0 
L 794 531 
z
" transform="scale(0.015625)"/>
        <path id="DejaVuSans-30" d="M 2034 4250 
Q 1547 4250 1301 3770 
Q 1056 3291 1056 2328 
Q 1056 1369 1301 889 
Q 1547 409 2034 409 
Q 2525 409 2770 889 
Q 3016 1369 3016 2328 
Q 3016 3291 2770 3770 
Q 2525 4250 2034 4250 
z
M 2034 4750 
Q 2819 4750 3233 4129 
Q 3647 3509 3647 2328 
Q 3647 1150 3233 529 
Q 2819 -91 2034 -91 
Q 1250 -91 836 529 
Q 422 1150 422 2328 
Q 422 3509 836 4129 
Q 1250 4750 2034 4750 
z
" transform="scale(0.015625)"/>
        <path id="DejaVuSans-2212" d="M 678 2272 
L 4684 2272 
L 4684 1741 
L 678 1741 
L 678 2272 
z
" transform="scale(0.015625)"/>
        <path id="DejaVuSans-33" d="M 2597 2516 
Q 3050 2419 3304 2112 
Q 3559 1806 3559 1356 
Q 3559 666 3084 287 
Q 2609 -91 1734 -91 
Q 1441 -91 1130 -33 
Q 819 25 488 141 
L 488 750 
Q 750 597 1062 519 
Q 1375 441 1716 441 
Q 2309 441 2620 675 
Q 2931 909 2931 1356 
Q 2931 1769 2642 2001 
Q 2353 2234 1838 2234 
L 1294 2234 
L 1294 2753 
L 1863 2753 
Q 2328 2753 2575 2939 
Q 2822 3125 2822 3475 
Q 2822 3834 2567 4026 
Q 2313 4219 1838 4219 
Q 1578 4219 1281 4162 
Q 984 4106 628 3988 
L 628 4550 
Q 988 4650 1302 4700 
Q 1616 4750 1894 4750 
Q 2613 4750 3031 4423 
Q 3450 4097 3450 3541 
Q 3450 3153 3228 2886 
Q 3006 2619 2597 2516 
z
" transform="scale(0.015625)"/>
       </defs>
       <use xlink:href="#DejaVuSans-31" transform="translate(0 0.765625)"/>
       <use xlink:href="#DejaVuSans-30" transform="translate(63.623047 0.765625)"/>
       <use xlink:href="#DejaVuSans-2212" transform="translate(128.203125 39.046875) scale(0.7)"/>
       <use xlink:href="#DejaVuSans-33" transform="translate(186.855469 39.046875) scale(0.7)"/>
      </g>
     </g>
    </g>
    <g id="xtick_2">
     <g id="line2d_3">
      <path d="M 182.050909 307.584 
L 182.050909 41.472 
" clip-path="url(#p2651b96ce2)" style="fill: none; stroke: #b0b0b0; stroke-width: 0.8; stroke-linecap: square"/>
     </g>
     <g id="line2d_4">
      <g>
       <use xlink:href="#m6722ca8328" x="182.050909" y="307.584" style="stroke: #000000; stroke-width: 0.8"/>
      </g>
     </g>
     <g id="text_2">
      <!-- $\mathdefault{10^{-2}}$ -->
      <g transform="translate(170.300909 322.182437) scale(0.1 -0.1)">
       <defs>
        <path id="DejaVuSans-32" d="M 1228 531 
L 3431 531 
L 3431 0 
L 469 0 
L 469 531 
Q 828 903 1448 1529 
Q 2069 2156 2228 2338 
Q 2531 2678 2651 2914 
Q 2772 3150 2772 3378 
Q 2772 3750 2511 3984 
Q 2250 4219 1831 4219 
Q 1534 4219 1204 4116 
Q 875 4013 500 3803 
L 500 4441 
Q 881 4594 1212 4672 
Q 1544 4750 1819 4750 
Q 2544 4750 2975 4387 
Q 3406 4025 3406 3419 
Q 3406 3131 3298 2873 
Q 3191 2616 2906 2266 
Q 2828 2175 2409 1742 
Q 1991 1309 1228 531 
z
" transform="scale(0.015625)"/>
       </defs>
       <use xlink:href="#DejaVuSans-31" transform="translate(0 0.765625)"/>
       <use xlink:href="#DejaVuSans-30" transform="translate(63.623047 0.765625)"/>
       <use xlink:href="#DejaVuSans-2212" transform="translate(128.203125 39.046875) scale(0.7)"/>
       <use xlink:href="#DejaVuSans-32" transform="translate(186.855469 39.046875) scale(0.7)"/>
      </g>
     </g>
    </g>
    <g id="xtick_3">
     <g id="line2d_5">
      <path d="M 290.269091 307.584 
L 290.269091 41.472 
" clip-path="url(#p2651b96ce2)" style="fill: none; stroke: #b0b0b0; stroke-width: 0.8; stroke-linecap: square"/>
     </g>
     <g id="line2d_6">
      <g>
       <use xlink:href="#m6722ca8328" x="290.269091" y="307.584" style="stroke: #000000; stroke-width: 0.8"/>
      </g>
     </g>
     <g id="text_3">
      <!-- $\mathdefault{10^{-1}}$ -->
      <g transform="translate(278.519091 322.182437) scale(0.1 -0.1)">
       <use xlink:href="#DejaVuSans-31" transform="translate(0 0.684375)"/>
       <use xlink:href="#DejaVuSans-30" transform="translate(63.623047 0.684375)"/>
       <use xlink:href="#DejaVuSans-2212" transform="translate(128.203125 38.965625) scale(0.7)"/>
       <use xlink:href="#DejaVuSans-31" transform="translate(186.855469 38.965625) scale(0.7)"/>
      </g>
     </g>
    </g>
    <g id="xtick_4">
     <g id="line2d_7">
      <path d="M 398.487273 307.584 
L 398.487273 41.472 
" clip-path="url(#p2651b96ce2)" style="fill: none; stroke: #b0b0b0; stroke-width: 0.8; stroke-linecap: square"/>
     </g>
     <g id="line2d_8">
      <g>
       <use xlink:href="#m6722ca8328" x="398.487273" y="307.584" style="stroke: #000000; stroke-width: 0.8"/>
      </g>
     </g>
     <g id="text_4">
      <!-- $\mathdefault{10^{0}}$ -->
      <g transform="translate(389.687273 322.182437) scale(0.1 -0.1)">
       <use xlink:href="#DejaVuSans-31" transform="translate(0 0.765625)"/>
       <use xlink:href="#DejaVuSans-30" transform="translate(63.623047 0.765625)"/>
       <use xlink:href="#DejaVuSans-30" transform="translate(128.203125 39.046875) scale(0.7)"/>
      </g>
     </g>
    </g>
    <g id="xtick_5">
     <g id="line2d_9">
      <path d="M 63.345302 307.584 
L 63.345302 41.472 
" clip-path="url(#p2651b96ce2)" style="fill: none; stroke: #b0b0b0; stroke-width: 0.8; stroke-linecap: square"/>
     </g>
     <g id="line2d_10">
      <defs>
       <path id="mfe2bc287e9" d="M 0 0 
L 0 2 
" style="stroke: #000000; stroke-width: 0.6"/>
      </defs>
      <g>
       <use xlink:href="#mfe2bc287e9" x="63.345302" y="307.584" style="stroke: #000000; stroke-width: 0.6"/>
      </g>
     </g>
    </g>
    <g id="xtick_6">
     <g id="line2d_11">
      <path d="M 68.880935 307.584 
L 68.880935 41.472 
" clip-path="url(#p2651b96ce2)" style="fill: none; stroke: #b0b0b0; stroke-width: 0.8; stroke-linecap: square"/>
     </g>
     <g id="line2d_12">
      <g>
       <use xlink:href="#mfe2bc287e9" x="68.880935" y="307.584" style="stroke: #000000; stroke-width: 0.6"/>
      </g>
     </g>
    </g>
    <g id="xtick_7">
     <g id="line2d_13">
      <path d="M 106.409646 307.584 
L 106.409646 41.472 
" clip-path="url(#p2651b96ce2)" style="fill: none; stroke: #b0b0b0; stroke-width: 0.8; stroke-linecap: square"/>
     </g>
     <g id="line2d_14">
      <g>
       <use xlink:href="#mfe2bc287e9" x="106.409646" y="307.584" style="stroke: #000000; stroke-width: 0.6"/>
      </g>
     </g>
    </g>
    <g id="xtick_8">
     <g id="line2d_15">
      <path d="M 125.465922 307.584 
L 125.465922 41.472 
" clip-path="url(#p2651b96ce2)" style="fill: none; stroke: #b0b0b0; stroke-width: 0.8; stroke-linecap: square"/>
     </g>
     <g id="line2d_16">
      <g>
       <use xlink:href="#mfe2bc287e9" x="125.465922" y="307.584" style="stroke: #000000; stroke-width: 0.6"/>
      </g>
     </g>
    </g>
    <g id="xtick_9">
     <g id="line2d_17">
      <path d="M 138.986565 307.584 
L 138.986565 41.472 
" clip-path="url(#p2651b96ce2)" style="fill: none; stroke: #b0b0b0; stroke-width: 0.8; stroke-linecap: square"/>
     </g>
     <g id="line2d_18">
      <g>
       <use xlink:href="#mfe2bc287e9" x="138.986565" y="307.584" style="stroke: #000000; stroke-width: 0.6"/>
      </g>
     </g>
    </g>
    <g id="xtick_10">
     <g id="line2d_19">
      <path d="M 149.47399 307.584 
L 149.47399 41.472 
" clip-path="url(#p2651b96ce2)" style="fill: none; stroke: #b0b0b0; stroke-width: 0.8; stroke-linecap: square"/>
     </g>
     <g id="line2d_20">
      <g>
       <use xlink:href="#mfe2bc287e9" x="149.47399" y="307.584" style="stroke: #000000; stroke-width: 0.6"/>
      </g>
     </g>
    </g>
    <g id="xtick_11">
     <g id="line2d_21">
      <path d="M 158.042841 307.584 
L 158.042841 41.472 
" clip-path="url(#p2651b96ce2)" style="fill: none; stroke: #b0b0b0; stroke-width: 0.8; stroke-linecap: square"/>
     </g>
     <g id="line2d_22">
      <g>
       <use xlink:href="#mfe2bc287e9" x="158.042841" y="307.584" style="stroke: #000000; stroke-width: 0.6"/>
      </g>
     </g>
    </g>
    <g id="xtick_12">
     <g id="line2d_23">
      <path d="M 165.287701 307.584 
L 165.287701 41.472 
" clip-path="url(#p2651b96ce2)" style="fill: none; stroke: #b0b0b0; stroke-width: 0.8; stroke-linecap: square"/>
     </g>
     <g id="line2d_24">
      <g>
       <use xlink:href="#mfe2bc287e9" x="165.287701" y="307.584" style="stroke: #000000; stroke-width: 0.6"/>
      </g>
     </g>
    </g>
    <g id="xtick_13">
     <g id="line2d_25">
      <path d="M 171.563484 307.584 
L 171.563484 41.472 
" clip-path="url(#p2651b96ce2)" style="fill: none; stroke: #b0b0b0; stroke-width: 0.8; stroke-linecap: square"/>
     </g>
     <g id="line2d_26">
      <g>
       <use xlink:href="#mfe2bc287e9" x="171.563484" y="307.584" style="stroke: #000000; stroke-width: 0.6"/>
      </g>
     </g>
    </g>
    <g id="xtick_14">
     <g id="line2d_27">
      <path d="M 177.099117 307.584 
L 177.099117 41.472 
" clip-path="url(#p2651b96ce2)" style="fill: none; stroke: #b0b0b0; stroke-width: 0.8; stroke-linecap: square"/>
     </g>
     <g id="line2d_28">
      <g>
       <use xlink:href="#mfe2bc287e9" x="177.099117" y="307.584" style="stroke: #000000; stroke-width: 0.6"/>
      </g>
     </g>
    </g>
    <g id="xtick_15">
     <g id="line2d_29">
      <path d="M 214.627828 307.584 
L 214.627828 41.472 
" clip-path="url(#p2651b96ce2)" style="fill: none; stroke: #b0b0b0; stroke-width: 0.8; stroke-linecap: square"/>
     </g>
     <g id="line2d_30">
      <g>
       <use xlink:href="#mfe2bc287e9" x="214.627828" y="307.584" style="stroke: #000000; stroke-width: 0.6"/>
      </g>
     </g>
    </g>
    <g id="xtick_16">
     <g id="line2d_31">
      <path d="M 233.684104 307.584 
L 233.684104 41.472 
" clip-path="url(#p2651b96ce2)" style="fill: none; stroke: #b0b0b0; stroke-width: 0.8; stroke-linecap: square"/>
     </g>
     <g id="line2d_32">
      <g>
       <use xlink:href="#mfe2bc287e9" x="233.684104" y="307.584" style="stroke: #000000; stroke-width: 0.6"/>
      </g>
     </g>
    </g>
    <g id="xtick_17">
     <g id="line2d_33">
      <path d="M 247.204747 307.584 
L 247.204747 41.472 
" clip-path="url(#p2651b96ce2)" style="fill: none; stroke: #b0b0b0; stroke-width: 0.8; stroke-linecap: square"/>
     </g>
     <g id="line2d_34">
      <g>
       <use xlink:href="#mfe2bc287e9" x="247.204747" y="307.584" style="stroke: #000000; stroke-width: 0.6"/>
      </g>
     </g>
    </g>
    <g id="xtick_18">
     <g id="line2d_35">
      <path d="M 257.692172 307.584 
L 257.692172 41.472 
" clip-path="url(#p2651b96ce2)" style="fill: none; stroke: #b0b0b0; stroke-width: 0.8; stroke-linecap: square"/>
     </g>
     <g id="line2d_36">
      <g>
       <use xlink:href="#mfe2bc287e9" x="257.692172" y="307.584" style="stroke: #000000; stroke-width: 0.6"/>
      </g>
     </g>
    </g>
    <g id="xtick_19">
     <g id="line2d_37">
      <path d="M 266.261023 307.584 
L 266.261023 41.472 
" clip-path="url(#p2651b96ce2)" style="fill: none; stroke: #b0b0b0; stroke-width: 0.8; stroke-linecap: square"/>
     </g>
     <g id="line2d_38">
      <g>
       <use xlink:href="#mfe2bc287e9" x="266.261023" y="307.584" style="stroke: #000000; stroke-width: 0.6"/>
      </g>
     </g>
    </g>
    <g id="xtick_20">
     <g id="line2d_39">
      <path d="M 273.505882 307.584 
L 273.505882 41.472 
" clip-path="url(#p2651b96ce2)" style="fill: none; stroke: #b0b0b0; stroke-width: 0.8; stroke-linecap: square"/>
     </g>
     <g id="line2d_40">
      <g>
       <use xlink:href="#mfe2bc287e9" x="273.505882" y="307.584" style="stroke: #000000; stroke-width: 0.6"/>
      </g>
     </g>
    </g>
    <g id="xtick_21">
     <g id="line2d_41">
      <path d="M 279.781666 307.584 
L 279.781666 41.472 
" clip-path="url(#p2651b96ce2)" style="fill: none; stroke: #b0b0b0; stroke-width: 0.8; stroke-linecap: square"/>
     </g>
     <g id="line2d_42">
      <g>
       <use xlink:href="#mfe2bc287e9" x="279.781666" y="307.584" style="stroke: #000000; stroke-width: 0.6"/>
      </g>
     </g>
    </g>
    <g id="xtick_22">
     <g id="line2d_43">
      <path d="M 285.317298 307.584 
L 285.317298 41.472 
" clip-path="url(#p2651b96ce2)" style="fill: none; stroke: #b0b0b0; stroke-width: 0.8; stroke-linecap: square"/>
     </g>
     <g id="line2d_44">
      <g>
       <use xlink:href="#mfe2bc287e9" x="285.317298" y="307.584" style="stroke: #000000; stroke-width: 0.6"/>
      </g>
     </g>
    </g>
    <g id="xtick_23">
     <g id="line2d_45">
      <path d="M 322.84601 307.584 
L 322.84601 41.472 
" clip-path="url(#p2651b96ce2)" style="fill: none; stroke: #b0b0b0; stroke-width: 0.8; stroke-linecap: square"/>
     </g>
     <g id="line2d_46">
      <g>
       <use xlink:href="#mfe2bc287e9" x="322.84601" y="307.584" style="stroke: #000000; stroke-width: 0.6"/>
      </g>
     </g>
    </g>
    <g id="xtick_24">
     <g id="line2d_47">
      <path d="M 341.902286 307.584 
L 341.902286 41.472 
" clip-path="url(#p2651b96ce2)" style="fill: none; stroke: #b0b0b0; stroke-width: 0.8; stroke-linecap: square"/>
     </g>
     <g id="line2d_48">
      <g>
       <use xlink:href="#mfe2bc287e9" x="341.902286" y="307.584" style="stroke: #000000; stroke-width: 0.6"/>
      </g>
     </g>
    </g>
    <g id="xtick_25">
     <g id="line2d_49">
      <path d="M 355.422929 307.584 
L 355.422929 41.472 
" clip-path="url(#p2651b96ce2)" style="fill: none; stroke: #b0b0b0; stroke-width: 0.8; stroke-linecap: square"/>
     </g>
     <g id="line2d_50">
      <g>
       <use xlink:href="#mfe2bc287e9" x="355.422929" y="307.584" style="stroke: #000000; stroke-width: 0.6"/>
      </g>
     </g>
    </g>
    <g id="xtick_26">
     <g id="line2d_51">
      <path d="M 365.910354 307.584 
L 365.910354 41.472 
" clip-path="url(#p2651b96ce2)" style="fill: none; stroke: #b0b0b0; stroke-width: 0.8; stroke-linecap: square"/>
     </g>
     <g id="line2d_52">
      <g>
       <use xlink:href="#mfe2bc287e9" x="365.910354" y="307.584" style="stroke: #000000; stroke-width: 0.6"/>
      </g>
     </g>
    </g>
    <g id="xtick_27">
     <g id="line2d_53">
      <path d="M 374.479204 307.584 
L 374.479204 41.472 
" clip-path="url(#p2651b96ce2)" style="fill: none; stroke: #b0b0b0; stroke-width: 0.8; stroke-linecap: square"/>
     </g>
     <g id="line2d_54">
      <g>
       <use xlink:href="#mfe2bc287e9" x="374.479204" y="307.584" style="stroke: #000000; stroke-width: 0.6"/>
      </g>
     </g>
    </g>
    <g id="xtick_28">
     <g id="line2d_55">
      <path d="M 381.724064 307.584 
L 381.724064 41.472 
" clip-path="url(#p2651b96ce2)" style="fill: none; stroke: #b0b0b0; stroke-width: 0.8; stroke-linecap: square"/>
     </g>
     <g id="line2d_56">
      <g>
       <use xlink:href="#mfe2bc287e9" x="381.724064" y="307.584" style="stroke: #000000; stroke-width: 0.6"/>
      </g>
     </g>
    </g>
    <g id="xtick_29">
     <g id="line2d_57">
      <path d="M 387.999847 307.584 
L 387.999847 41.472 
" clip-path="url(#p2651b96ce2)" style="fill: none; stroke: #b0b0b0; stroke-width: 0.8; stroke-linecap: square"/>
     </g>
     <g id="line2d_58">
      <g>
       <use xlink:href="#mfe2bc287e9" x="387.999847" y="307.584" style="stroke: #000000; stroke-width: 0.6"/>
      </g>
     </g>
    </g>
    <g id="xtick_30">
     <g id="line2d_59">
      <path d="M 393.53548 307.584 
L 393.53548 41.472 
" clip-path="url(#p2651b96ce2)" style="fill: none; stroke: #b0b0b0; stroke-width: 0.8; stroke-linecap: square"/>
     </g>
     <g id="line2d_60">
      <g>
       <use xlink:href="#mfe2bc287e9" x="393.53548" y="307.584" style="stroke: #000000; stroke-width: 0.6"/>
      </g>
     </g>
    </g>
    <g id="text_5">
     <!-- Fraction of weights kept -->
     <g transform="translate(176.226406 335.860562) scale(0.1 -0.1)">
      <defs>
       <path id="DejaVuSans-46" d="M 628 4666 
L 3309 4666 
L 3309 4134 
L 1259 4134 
L 1259 2759 
L 3109 2759 
L 3109 2228 
L 1259 2228 
L 1259 0 
L 628 0 
L 628 4666 
z
" transform="scale(0.015625)"/>
       <path id="DejaVuSans-72" d="M 2631 2963 
Q 2534 3019 2420 3045 
Q 2306 3072 2169 3072 
Q 1681 3072 1420 2755 
Q 1159 2438 1159 1844 
L 1159 0 
L 581 0 
L 581 3500 
L 1159 3500 
L 1159 2956 
Q 1341 3275 1631 3429 
Q 1922 3584 2338 3584 
Q 2397 3584 2469 3576 
Q 2541 3569 2628 3553 
L 2631 2963 
z
" transform="scale(0.015625)"/>
       <path id="DejaVuSans-61" d="M 2194 1759 
Q 1497 1759 1228 1600 
Q 959 1441 959 1056 
Q 959 750 1161 570 
Q 1363 391 1709 391 
Q 2188 391 2477 730 
Q 2766 1069 2766 1631 
L 2766 1759 
L 2194 1759 
z
M 3341 1997 
L 3341 0 
L 2766 0 
L 2766 531 
Q 2569 213 2275 61 
Q 1981 -91 1556 -91 
Q 1019 -91 701 211 
Q 384 513 384 1019 
Q 384 1609 779 1909 
Q 1175 2209 1959 2209 
L 2766 2209 
L 2766 2266 
Q 2766 2663 2505 2880 
Q 2244 3097 1772 3097 
Q 1472 3097 1187 3025 
Q 903 2953 641 2809 
L 641 3341 
Q 956 3463 1253 3523 
Q 1550 3584 1831 3584 
Q 2591 3584 2966 3190 
Q 3341 2797 3341 1997 
z
" transform="scale(0.015625)"/>
       <path id="DejaVuSans-63" d="M 3122 3366 
L 3122 2828 
Q 2878 2963 2633 3030 
Q 2388 3097 2138 3097 
Q 1578 3097 1268 2742 
Q 959 2388 959 1747 
Q 959 1106 1268 751 
Q 1578 397 2138 397 
Q 2388 397 2633 464 
Q 2878 531 3122 666 
L 3122 134 
Q 2881 22 2623 -34 
Q 2366 -91 2075 -91 
Q 1284 -91 818 406 
Q 353 903 353 1747 
Q 353 2603 823 3093 
Q 1294 3584 2113 3584 
Q 2378 3584 2631 3529 
Q 2884 3475 3122 3366 
z
" transform="scale(0.015625)"/>
       <path id="DejaVuSans-74" d="M 1172 4494 
L 1172 3500 
L 2356 3500 
L 2356 3053 
L 1172 3053 
L 1172 1153 
Q 1172 725 1289 603 
Q 1406 481 1766 481 
L 2356 481 
L 2356 0 
L 1766 0 
Q 1100 0 847 248 
Q 594 497 594 1153 
L 594 3053 
L 172 3053 
L 172 3500 
L 594 3500 
L 594 4494 
L 1172 4494 
z
" transform="scale(0.015625)"/>
       <path id="DejaVuSans-69" d="M 603 3500 
L 1178 3500 
L 1178 0 
L 603 0 
L 603 3500 
z
M 603 4863 
L 1178 4863 
L 1178 4134 
L 603 4134 
L 603 4863 
z
" transform="scale(0.015625)"/>
       <path id="DejaVuSans-6f" d="M 1959 3097 
Q 1497 3097 1228 2736 
Q 959 2375 959 1747 
Q 959 1119 1226 758 
Q 1494 397 1959 397 
Q 2419 397 2687 759 
Q 2956 1122 2956 1747 
Q 2956 2369 2687 2733 
Q 2419 3097 1959 3097 
z
M 1959 3584 
Q 2709 3584 3137 3096 
Q 3566 2609 3566 1747 
Q 3566 888 3137 398 
Q 2709 -91 1959 -91 
Q 1206 -91 779 398 
Q 353 888 353 1747 
Q 353 2609 779 3096 
Q 1206 3584 1959 3584 
z
" transform="scale(0.015625)"/>
       <path id="DejaVuSans-6e" d="M 3513 2113 
L 3513 0 
L 2938 0 
L 2938 2094 
Q 2938 2591 2744 2837 
Q 2550 3084 2163 3084 
Q 1697 3084 1428 2787 
Q 1159 2491 1159 1978 
L 1159 0 
L 581 0 
L 581 3500 
L 1159 3500 
L 1159 2956 
Q 1366 3272 1645 3428 
Q 1925 3584 2291 3584 
Q 2894 3584 3203 3211 
Q 3513 2838 3513 2113 
z
" transform="scale(0.015625)"/>
       <path id="DejaVuSans-20" transform="scale(0.015625)"/>
       <path id="DejaVuSans-66" d="M 2375 4863 
L 2375 4384 
L 1825 4384 
Q 1516 4384 1395 4259 
Q 1275 4134 1275 3809 
L 1275 3500 
L 2222 3500 
L 2222 3053 
L 1275 3053 
L 1275 0 
L 697 0 
L 697 3053 
L 147 3053 
L 147 3500 
L 697 3500 
L 697 3744 
Q 697 4328 969 4595 
Q 1241 4863 1831 4863 
L 2375 4863 
z
" transform="scale(0.015625)"/>
       <path id="DejaVuSans-77" d="M 269 3500 
L 844 3500 
L 1563 769 
L 2278 3500 
L 2956 3500 
L 3675 769 
L 4391 3500 
L 4966 3500 
L 4050 0 
L 3372 0 
L 2619 2869 
L 1863 0 
L 1184 0 
L 269 3500 
z
" transform="scale(0.015625)"/>
       <path id="DejaVuSans-65" d="M 3597 1894 
L 3597 1613 
L 953 1613 
Q 991 1019 1311 708 
Q 1631 397 2203 397 
Q 2534 397 2845 478 
Q 3156 559 3463 722 
L 3463 178 
Q 3153 47 2828 -22 
Q 2503 -91 2169 -91 
Q 1331 -91 842 396 
Q 353 884 353 1716 
Q 353 2575 817 3079 
Q 1281 3584 2069 3584 
Q 2775 3584 3186 3129 
Q 3597 2675 3597 1894 
z
M 3022 2063 
Q 3016 2534 2758 2815 
Q 2500 3097 2075 3097 
Q 1594 3097 1305 2825 
Q 1016 2553 972 2059 
L 3022 2063 
z
" transform="scale(0.015625)"/>
       <path id="DejaVuSans-67" d="M 2906 1791 
Q 2906 2416 2648 2759 
Q 2391 3103 1925 3103 
Q 1463 3103 1205 2759 
Q 947 2416 947 1791 
Q 947 1169 1205 825 
Q 1463 481 1925 481 
Q 2391 481 2648 825 
Q 2906 1169 2906 1791 
z
M 3481 434 
Q 3481 -459 3084 -895 
Q 2688 -1331 1869 -1331 
Q 1566 -1331 1297 -1286 
Q 1028 -1241 775 -1147 
L 775 -588 
Q 1028 -725 1275 -790 
Q 1522 -856 1778 -856 
Q 2344 -856 2625 -561 
Q 2906 -266 2906 331 
L 2906 616 
Q 2728 306 2450 153 
Q 2172 0 1784 0 
Q 1141 0 747 490 
Q 353 981 353 1791 
Q 353 2603 747 3093 
Q 1141 3584 1784 3584 
Q 2172 3584 2450 3431 
Q 2728 3278 2906 2969 
L 2906 3500 
L 3481 3500 
L 3481 434 
z
" transform="scale(0.015625)"/>
       <path id="DejaVuSans-68" d="M 3513 2113 
L 3513 0 
L 2938 0 
L 2938 2094 
Q 2938 2591 2744 2837 
Q 2550 3084 2163 3084 
Q 1697 3084 1428 2787 
Q 1159 2491 1159 1978 
L 1159 0 
L 581 0 
L 581 4863 
L 1159 4863 
L 1159 2956 
Q 1366 3272 1645 3428 
Q 1925 3584 2291 3584 
Q 2894 3584 3203 3211 
Q 3513 2838 3513 2113 
z
" transform="scale(0.015625)"/>
       <path id="DejaVuSans-73" d="M 2834 3397 
L 2834 2853 
Q 2591 2978 2328 3040 
Q 2066 3103 1784 3103 
Q 1356 3103 1142 2972 
Q 928 2841 928 2578 
Q 928 2378 1081 2264 
Q 1234 2150 1697 2047 
L 1894 2003 
Q 2506 1872 2764 1633 
Q 3022 1394 3022 966 
Q 3022 478 2636 193 
Q 2250 -91 1575 -91 
Q 1294 -91 989 -36 
Q 684 19 347 128 
L 347 722 
Q 666 556 975 473 
Q 1284 391 1588 391 
Q 1994 391 2212 530 
Q 2431 669 2431 922 
Q 2431 1156 2273 1281 
Q 2116 1406 1581 1522 
L 1381 1569 
Q 847 1681 609 1914 
Q 372 2147 372 2553 
Q 372 3047 722 3315 
Q 1072 3584 1716 3584 
Q 2034 3584 2315 3537 
Q 2597 3491 2834 3397 
z
" transform="scale(0.015625)"/>
       <path id="DejaVuSans-6b" d="M 581 4863 
L 1159 4863 
L 1159 1991 
L 2875 3500 
L 3609 3500 
L 1753 1863 
L 3688 0 
L 2938 0 
L 1159 1709 
L 1159 0 
L 581 0 
L 581 4863 
z
" transform="scale(0.015625)"/>
       <path id="DejaVuSans-70" d="M 1159 525 
L 1159 -1331 
L 581 -1331 
L 581 3500 
L 1159 3500 
L 1159 2969 
Q 1341 3281 1617 3432 
Q 1894 3584 2278 3584 
Q 2916 3584 3314 3078 
Q 3713 2572 3713 1747 
Q 3713 922 3314 415 
Q 2916 -91 2278 -91 
Q 1894 -91 1617 61 
Q 1341 213 1159 525 
z
M 3116 1747 
Q 3116 2381 2855 2742 
Q 2594 3103 2138 3103 
Q 1681 3103 1420 2742 
Q 1159 2381 1159 1747 
Q 1159 1113 1420 752 
Q 1681 391 2138 391 
Q 2594 391 2855 752 
Q 3116 1113 3116 1747 
z
" transform="scale(0.015625)"/>
      </defs>
      <use xlink:href="#DejaVuSans-46"/>
      <use xlink:href="#DejaVuSans-72" x="50.269531"/>
      <use xlink:href="#DejaVuSans-61" x="91.382812"/>
      <use xlink:href="#DejaVuSans-63" x="152.662109"/>
      <use xlink:href="#DejaVuSans-74" x="207.642578"/>
      <use xlink:href="#DejaVuSans-69" x="246.851562"/>
      <use xlink:href="#DejaVuSans-6f" x="274.634766"/>
      <use xlink:href="#DejaVuSans-6e" x="335.816406"/>
      <use xlink:href="#DejaVuSans-20" x="399.195312"/>
      <use xlink:href="#DejaVuSans-6f" x="430.982422"/>
      <use xlink:href="#DejaVuSans-66" x="492.164062"/>
      <use xlink:href="#DejaVuSans-20" x="527.369141"/>
      <use xlink:href="#DejaVuSans-77" x="559.15625"/>
      <use xlink:href="#DejaVuSans-65" x="640.943359"/>
      <use xlink:href="#DejaVuSans-69" x="702.466797"/>
      <use xlink:href="#DejaVuSans-67" x="730.25"/>
      <use xlink:href="#DejaVuSans-68" x="793.726562"/>
      <use xlink:href="#DejaVuSans-74" x="857.105469"/>
      <use xlink:href="#DejaVuSans-73" x="896.314453"/>
      <use xlink:href="#DejaVuSans-20" x="948.414062"/>
      <use xlink:href="#DejaVuSans-6b" x="980.201172"/>
      <use xlink:href="#DejaVuSans-65" x="1034.486328"/>
      <use xlink:href="#DejaVuSans-70" x="1096.009766"/>
      <use xlink:href="#DejaVuSans-74" x="1159.486328"/>
     </g>
    </g>
   </g>
   <g id="matplotlib.axis_2">
    <g id="ytick_1">
     <g id="line2d_61">
      <path d="M 57.6 268.363883 
L 414.72 268.363883 
" clip-path="url(#p2651b96ce2)" style="fill: none; stroke: #b0b0b0; stroke-width: 0.8; stroke-linecap: square"/>
     </g>
     <g id="line2d_62">
      <defs>
       <path id="m596fb7092f" d="M 0 0 
L -3.5 0 
" style="stroke: #000000; stroke-width: 0.8"/>
      </defs>
      <g>
       <use xlink:href="#m596fb7092f" x="57.6" y="268.363883" style="stroke: #000000; stroke-width: 0.8"/>
      </g>
     </g>
     <g id="text_6">
      <!-- 20 -->
      <g transform="translate(37.875 272.163102) scale(0.1 -0.1)">
       <use xlink:href="#DejaVuSans-32"/>
       <use xlink:href="#DejaVuSans-30" x="63.623047"/>
      </g>
     </g>
    </g>
    <g id="ytick_2">
     <g id="line2d_63">
      <path d="M 57.6 214.115649 
L 414.72 214.115649 
" clip-path="url(#p2651b96ce2)" style="fill: none; stroke: #b0b0b0; stroke-width: 0.8; stroke-linecap: square"/>
     </g>
     <g id="line2d_64">
      <g>
       <use xlink:href="#m596fb7092f" x="57.6" y="214.115649" style="stroke: #000000; stroke-width: 0.8"/>
      </g>
     </g>
     <g id="text_7">
      <!-- 40 -->
      <g transform="translate(37.875 217.914868) scale(0.1 -0.1)">
       <defs>
        <path id="DejaVuSans-34" d="M 2419 4116 
L 825 1625 
L 2419 1625 
L 2419 4116 
z
M 2253 4666 
L 3047 4666 
L 3047 1625 
L 3713 1625 
L 3713 1100 
L 3047 1100 
L 3047 0 
L 2419 0 
L 2419 1100 
L 313 1100 
L 313 1709 
L 2253 4666 
z
" transform="scale(0.015625)"/>
       </defs>
       <use xlink:href="#DejaVuSans-34"/>
       <use xlink:href="#DejaVuSans-30" x="63.623047"/>
      </g>
     </g>
    </g>
    <g id="ytick_3">
     <g id="line2d_65">
      <path d="M 57.6 159.867415 
L 414.72 159.867415 
" clip-path="url(#p2651b96ce2)" style="fill: none; stroke: #b0b0b0; stroke-width: 0.8; stroke-linecap: square"/>
     </g>
     <g id="line2d_66">
      <g>
       <use xlink:href="#m596fb7092f" x="57.6" y="159.867415" style="stroke: #000000; stroke-width: 0.8"/>
      </g>
     </g>
     <g id="text_8">
      <!-- 60 -->
      <g transform="translate(37.875 163.666633) scale(0.1 -0.1)">
       <defs>
        <path id="DejaVuSans-36" d="M 2113 2584 
Q 1688 2584 1439 2293 
Q 1191 2003 1191 1497 
Q 1191 994 1439 701 
Q 1688 409 2113 409 
Q 2538 409 2786 701 
Q 3034 994 3034 1497 
Q 3034 2003 2786 2293 
Q 2538 2584 2113 2584 
z
M 3366 4563 
L 3366 3988 
Q 3128 4100 2886 4159 
Q 2644 4219 2406 4219 
Q 1781 4219 1451 3797 
Q 1122 3375 1075 2522 
Q 1259 2794 1537 2939 
Q 1816 3084 2150 3084 
Q 2853 3084 3261 2657 
Q 3669 2231 3669 1497 
Q 3669 778 3244 343 
Q 2819 -91 2113 -91 
Q 1303 -91 875 529 
Q 447 1150 447 2328 
Q 447 3434 972 4092 
Q 1497 4750 2381 4750 
Q 2619 4750 2861 4703 
Q 3103 4656 3366 4563 
z
" transform="scale(0.015625)"/>
       </defs>
       <use xlink:href="#DejaVuSans-36"/>
       <use xlink:href="#DejaVuSans-30" x="63.623047"/>
      </g>
     </g>
    </g>
    <g id="ytick_4">
     <g id="line2d_67">
      <path d="M 57.6 105.619181 
L 414.72 105.619181 
" clip-path="url(#p2651b96ce2)" style="fill: none; stroke: #b0b0b0; stroke-width: 0.8; stroke-linecap: square"/>
     </g>
     <g id="line2d_68">
      <g>
       <use xlink:href="#m596fb7092f" x="57.6" y="105.619181" style="stroke: #000000; stroke-width: 0.8"/>
      </g>
     </g>
     <g id="text_9">
      <!-- 80 -->
      <g transform="translate(37.875 109.418399) scale(0.1 -0.1)">
       <defs>
        <path id="DejaVuSans-38" d="M 2034 2216 
Q 1584 2216 1326 1975 
Q 1069 1734 1069 1313 
Q 1069 891 1326 650 
Q 1584 409 2034 409 
Q 2484 409 2743 651 
Q 3003 894 3003 1313 
Q 3003 1734 2745 1975 
Q 2488 2216 2034 2216 
z
M 1403 2484 
Q 997 2584 770 2862 
Q 544 3141 544 3541 
Q 544 4100 942 4425 
Q 1341 4750 2034 4750 
Q 2731 4750 3128 4425 
Q 3525 4100 3525 3541 
Q 3525 3141 3298 2862 
Q 3072 2584 2669 2484 
Q 3125 2378 3379 2068 
Q 3634 1759 3634 1313 
Q 3634 634 3220 271 
Q 2806 -91 2034 -91 
Q 1263 -91 848 271 
Q 434 634 434 1313 
Q 434 1759 690 2068 
Q 947 2378 1403 2484 
z
M 1172 3481 
Q 1172 3119 1398 2916 
Q 1625 2713 2034 2713 
Q 2441 2713 2670 2916 
Q 2900 3119 2900 3481 
Q 2900 3844 2670 4047 
Q 2441 4250 2034 4250 
Q 1625 4250 1398 4047 
Q 1172 3844 1172 3481 
z
" transform="scale(0.015625)"/>
       </defs>
       <use xlink:href="#DejaVuSans-38"/>
       <use xlink:href="#DejaVuSans-30" x="63.623047"/>
      </g>
     </g>
    </g>
    <g id="ytick_5">
     <g id="line2d_69">
      <path d="M 57.6 51.370947 
L 414.72 51.370947 
" clip-path="url(#p2651b96ce2)" style="fill: none; stroke: #b0b0b0; stroke-width: 0.8; stroke-linecap: square"/>
     </g>
     <g id="line2d_70">
      <g>
       <use xlink:href="#m596fb7092f" x="57.6" y="51.370947" style="stroke: #000000; stroke-width: 0.8"/>
      </g>
     </g>
     <g id="text_10">
      <!-- 100 -->
      <g transform="translate(31.5125 55.170165) scale(0.1 -0.1)">
       <use xlink:href="#DejaVuSans-31"/>
       <use xlink:href="#DejaVuSans-30" x="63.623047"/>
       <use xlink:href="#DejaVuSans-30" x="127.246094"/>
      </g>
     </g>
    </g>
    <g id="text_11">
     <!-- Accuracy -->
     <g transform="translate(25.432812 197.356125) rotate(-90) scale(0.1 -0.1)">
      <defs>
       <path id="DejaVuSans-41" d="M 2188 4044 
L 1331 1722 
L 3047 1722 
L 2188 4044 
z
M 1831 4666 
L 2547 4666 
L 4325 0 
L 3669 0 
L 3244 1197 
L 1141 1197 
L 716 0 
L 50 0 
L 1831 4666 
z
" transform="scale(0.015625)"/>
       <path id="DejaVuSans-75" d="M 544 1381 
L 544 3500 
L 1119 3500 
L 1119 1403 
Q 1119 906 1312 657 
Q 1506 409 1894 409 
Q 2359 409 2629 706 
Q 2900 1003 2900 1516 
L 2900 3500 
L 3475 3500 
L 3475 0 
L 2900 0 
L 2900 538 
Q 2691 219 2414 64 
Q 2138 -91 1772 -91 
Q 1169 -91 856 284 
Q 544 659 544 1381 
z
M 1991 3584 
L 1991 3584 
z
" transform="scale(0.015625)"/>
       <path id="DejaVuSans-79" d="M 2059 -325 
Q 1816 -950 1584 -1140 
Q 1353 -1331 966 -1331 
L 506 -1331 
L 506 -850 
L 844 -850 
Q 1081 -850 1212 -737 
Q 1344 -625 1503 -206 
L 1606 56 
L 191 3500 
L 800 3500 
L 1894 763 
L 2988 3500 
L 3597 3500 
L 2059 -325 
z
" transform="scale(0.015625)"/>
      </defs>
      <use xlink:href="#DejaVuSans-41"/>
      <use xlink:href="#DejaVuSans-63" x="66.658203"/>
      <use xlink:href="#DejaVuSans-63" x="121.638672"/>
      <use xlink:href="#DejaVuSans-75" x="176.619141"/>
      <use xlink:href="#DejaVuSans-72" x="239.998047"/>
      <use xlink:href="#DejaVuSans-61" x="281.111328"/>
      <use xlink:href="#DejaVuSans-63" x="342.390625"/>
      <use xlink:href="#DejaVuSans-79" x="397.371094"/>
     </g>
    </g>
   </g>
   <g id="line2d_71">
    <path d="M 73.832727 248.753146 
L 77.112066 244.196295 
L 80.391405 230.227374 
L 83.670744 230.091754 
L 86.950083 214.332642 
L 90.229421 216.258454 
L 93.50876 210.426769 
L 96.788099 209.124811 
L 100.067438 207.415992 
L 103.346777 201.855548 
L 106.626116 196.26798 
L 109.905455 195.996739 
L 113.184793 184.631734 
L 116.464132 185.743822 
L 119.743471 191.819625 
L 123.02281 177.145477 
L 126.302149 172.019019 
L 129.581488 184.496113 
L 132.860826 186.747415 
L 136.140165 191.277142 
L 139.419504 183.601017 
L 142.698843 163.420674 
L 145.978182 153.818737 
L 149.257521 154.713832 
L 152.53686 150.156981 
L 155.816198 137.245901 
L 159.095537 128.322067 
L 162.374876 118.096274 
L 165.654215 117.038434 
L 168.933554 116.929937 
L 172.212893 113.91916 
L 175.492231 107.273752 
L 178.77157 105.158071 
L 182.050909 94.362672 
L 185.330248 82.563681 
L 188.609587 81.532965 
L 191.888926 76.460755 
L 195.168264 74.263701 
L 198.447603 71.795407 
L 201.726942 67.07581 
L 205.006281 63.359806 
L 208.28562 60.891512 
L 211.564959 59.860795 
L 214.844298 58.667334 
L 218.123636 57.745114 
L 221.402975 57.067011 
L 224.682314 56.063419 
L 227.961653 55.710805 
L 231.240992 54.734337 
L 234.520331 54.463096 
L 237.799669 54.381724 
L 241.079008 53.947738 
L 244.358347 54.02911 
L 247.637686 53.893489 
L 250.917025 53.812117 
L 254.196364 53.730745 
L 257.475702 53.622248 
L 260.755041 53.595124 
L 264.03438 53.649372 
L 267.313719 53.676496 
L 270.593058 53.568 
L 273.872397 53.676496 
L 277.151736 53.676496 
L 280.431074 53.622248 
L 283.710413 53.622248 
L 286.989752 53.595124 
L 290.269091 53.622248 
L 293.54843 53.649372 
L 296.827769 53.595124 
L 300.107107 53.595124 
L 303.386446 53.649372 
L 306.665785 53.622248 
L 309.945124 53.622248 
L 313.224463 53.622248 
L 316.503802 53.622248 
L 319.78314 53.622248 
L 323.062479 53.622248 
L 326.341818 53.622248 
L 329.621157 53.622248 
L 332.900496 53.622248 
L 336.179835 53.622248 
L 339.459174 53.622248 
L 342.738512 53.622248 
L 346.017851 53.622248 
L 349.29719 53.622248 
L 352.576529 53.622248 
L 355.855868 53.622248 
L 359.135207 53.622248 
L 362.414545 53.622248 
L 365.693884 53.622248 
L 368.973223 53.622248 
L 372.252562 53.622248 
L 375.531901 53.622248 
L 378.81124 53.622248 
L 382.090579 53.622248 
L 385.369917 53.622248 
L 388.649256 53.622248 
L 391.928595 53.622248 
L 395.207934 53.622248 
L 398.487273 53.622248 
" clip-path="url(#p2651b96ce2)" style="fill: none; stroke: #1f77b4; stroke-width: 1.5; stroke-linecap: square"/>
    <defs>
     <path id="mcb3312d7b7" d="M 0 1 
C 0.265203 1 0.51958 0.894634 0.707107 0.707107 
C 0.894634 0.51958 1 0.265203 1 0 
C 1 -0.265203 0.894634 -0.51958 0.707107 -0.707107 
C 0.51958 -0.894634 0.265203 -1 0 -1 
C -0.265203 -1 -0.51958 -0.894634 -0.707107 -0.707107 
C -0.894634 -0.51958 -1 -0.265203 -1 0 
C -1 0.265203 -0.894634 0.51958 -0.707107 0.707107 
C -0.51958 0.894634 -0.265203 1 0 1 
z
" style="stroke: #1f77b4"/>
    </defs>
    <g clip-path="url(#p2651b96ce2)">
     <use xlink:href="#mcb3312d7b7" x="73.832727" y="248.753146" style="fill: #1f77b4; stroke: #1f77b4"/>
     <use xlink:href="#mcb3312d7b7" x="77.112066" y="244.196295" style="fill: #1f77b4; stroke: #1f77b4"/>
     <use xlink:href="#mcb3312d7b7" x="80.391405" y="230.227374" style="fill: #1f77b4; stroke: #1f77b4"/>
     <use xlink:href="#mcb3312d7b7" x="83.670744" y="230.091754" style="fill: #1f77b4; stroke: #1f77b4"/>
     <use xlink:href="#mcb3312d7b7" x="86.950083" y="214.332642" style="fill: #1f77b4; stroke: #1f77b4"/>
     <use xlink:href="#mcb3312d7b7" x="90.229421" y="216.258454" style="fill: #1f77b4; stroke: #1f77b4"/>
     <use xlink:href="#mcb3312d7b7" x="93.50876" y="210.426769" style="fill: #1f77b4; stroke: #1f77b4"/>
     <use xlink:href="#mcb3312d7b7" x="96.788099" y="209.124811" style="fill: #1f77b4; stroke: #1f77b4"/>
     <use xlink:href="#mcb3312d7b7" x="100.067438" y="207.415992" style="fill: #1f77b4; stroke: #1f77b4"/>
     <use xlink:href="#mcb3312d7b7" x="103.346777" y="201.855548" style="fill: #1f77b4; stroke: #1f77b4"/>
     <use xlink:href="#mcb3312d7b7" x="106.626116" y="196.26798" style="fill: #1f77b4; stroke: #1f77b4"/>
     <use xlink:href="#mcb3312d7b7" x="109.905455" y="195.996739" style="fill: #1f77b4; stroke: #1f77b4"/>
     <use xlink:href="#mcb3312d7b7" x="113.184793" y="184.631734" style="fill: #1f77b4; stroke: #1f77b4"/>
     <use xlink:href="#mcb3312d7b7" x="116.464132" y="185.743822" style="fill: #1f77b4; stroke: #1f77b4"/>
     <use xlink:href="#mcb3312d7b7" x="119.743471" y="191.819625" style="fill: #1f77b4; stroke: #1f77b4"/>
     <use xlink:href="#mcb3312d7b7" x="123.02281" y="177.145477" style="fill: #1f77b4; stroke: #1f77b4"/>
     <use xlink:href="#mcb3312d7b7" x="126.302149" y="172.019019" style="fill: #1f77b4; stroke: #1f77b4"/>
     <use xlink:href="#mcb3312d7b7" x="129.581488" y="184.496113" style="fill: #1f77b4; stroke: #1f77b4"/>
     <use xlink:href="#mcb3312d7b7" x="132.860826" y="186.747415" style="fill: #1f77b4; stroke: #1f77b4"/>
     <use xlink:href="#mcb3312d7b7" x="136.140165" y="191.277142" style="fill: #1f77b4; stroke: #1f77b4"/>
     <use xlink:href="#mcb3312d7b7" x="139.419504" y="183.601017" style="fill: #1f77b4; stroke: #1f77b4"/>
     <use xlink:href="#mcb3312d7b7" x="142.698843" y="163.420674" style="fill: #1f77b4; stroke: #1f77b4"/>
     <use xlink:href="#mcb3312d7b7" x="145.978182" y="153.818737" style="fill: #1f77b4; stroke: #1f77b4"/>
     <use xlink:href="#mcb3312d7b7" x="149.257521" y="154.713832" style="fill: #1f77b4; stroke: #1f77b4"/>
     <use xlink:href="#mcb3312d7b7" x="152.53686" y="150.156981" style="fill: #1f77b4; stroke: #1f77b4"/>
     <use xlink:href="#mcb3312d7b7" x="155.816198" y="137.245901" style="fill: #1f77b4; stroke: #1f77b4"/>
     <use xlink:href="#mcb3312d7b7" x="159.095537" y="128.322067" style="fill: #1f77b4; stroke: #1f77b4"/>
     <use xlink:href="#mcb3312d7b7" x="162.374876" y="118.096274" style="fill: #1f77b4; stroke: #1f77b4"/>
     <use xlink:href="#mcb3312d7b7" x="165.654215" y="117.038434" style="fill: #1f77b4; stroke: #1f77b4"/>
     <use xlink:href="#mcb3312d7b7" x="168.933554" y="116.929937" style="fill: #1f77b4; stroke: #1f77b4"/>
     <use xlink:href="#mcb3312d7b7" x="172.212893" y="113.91916" style="fill: #1f77b4; stroke: #1f77b4"/>
     <use xlink:href="#mcb3312d7b7" x="175.492231" y="107.273752" style="fill: #1f77b4; stroke: #1f77b4"/>
     <use xlink:href="#mcb3312d7b7" x="178.77157" y="105.158071" style="fill: #1f77b4; stroke: #1f77b4"/>
     <use xlink:href="#mcb3312d7b7" x="182.050909" y="94.362672" style="fill: #1f77b4; stroke: #1f77b4"/>
     <use xlink:href="#mcb3312d7b7" x="185.330248" y="82.563681" style="fill: #1f77b4; stroke: #1f77b4"/>
     <use xlink:href="#mcb3312d7b7" x="188.609587" y="81.532965" style="fill: #1f77b4; stroke: #1f77b4"/>
     <use xlink:href="#mcb3312d7b7" x="191.888926" y="76.460755" style="fill: #1f77b4; stroke: #1f77b4"/>
     <use xlink:href="#mcb3312d7b7" x="195.168264" y="74.263701" style="fill: #1f77b4; stroke: #1f77b4"/>
     <use xlink:href="#mcb3312d7b7" x="198.447603" y="71.795407" style="fill: #1f77b4; stroke: #1f77b4"/>
     <use xlink:href="#mcb3312d7b7" x="201.726942" y="67.07581" style="fill: #1f77b4; stroke: #1f77b4"/>
     <use xlink:href="#mcb3312d7b7" x="205.006281" y="63.359806" style="fill: #1f77b4; stroke: #1f77b4"/>
     <use xlink:href="#mcb3312d7b7" x="208.28562" y="60.891512" style="fill: #1f77b4; stroke: #1f77b4"/>
     <use xlink:href="#mcb3312d7b7" x="211.564959" y="59.860795" style="fill: #1f77b4; stroke: #1f77b4"/>
     <use xlink:href="#mcb3312d7b7" x="214.844298" y="58.667334" style="fill: #1f77b4; stroke: #1f77b4"/>
     <use xlink:href="#mcb3312d7b7" x="218.123636" y="57.745114" style="fill: #1f77b4; stroke: #1f77b4"/>
     <use xlink:href="#mcb3312d7b7" x="221.402975" y="57.067011" style="fill: #1f77b4; stroke: #1f77b4"/>
     <use xlink:href="#mcb3312d7b7" x="224.682314" y="56.063419" style="fill: #1f77b4; stroke: #1f77b4"/>
     <use xlink:href="#mcb3312d7b7" x="227.961653" y="55.710805" style="fill: #1f77b4; stroke: #1f77b4"/>
     <use xlink:href="#mcb3312d7b7" x="231.240992" y="54.734337" style="fill: #1f77b4; stroke: #1f77b4"/>
     <use xlink:href="#mcb3312d7b7" x="234.520331" y="54.463096" style="fill: #1f77b4; stroke: #1f77b4"/>
     <use xlink:href="#mcb3312d7b7" x="237.799669" y="54.381724" style="fill: #1f77b4; stroke: #1f77b4"/>
     <use xlink:href="#mcb3312d7b7" x="241.079008" y="53.947738" style="fill: #1f77b4; stroke: #1f77b4"/>
     <use xlink:href="#mcb3312d7b7" x="244.358347" y="54.02911" style="fill: #1f77b4; stroke: #1f77b4"/>
     <use xlink:href="#mcb3312d7b7" x="247.637686" y="53.893489" style="fill: #1f77b4; stroke: #1f77b4"/>
     <use xlink:href="#mcb3312d7b7" x="250.917025" y="53.812117" style="fill: #1f77b4; stroke: #1f77b4"/>
     <use xlink:href="#mcb3312d7b7" x="254.196364" y="53.730745" style="fill: #1f77b4; stroke: #1f77b4"/>
     <use xlink:href="#mcb3312d7b7" x="257.475702" y="53.622248" style="fill: #1f77b4; stroke: #1f77b4"/>
     <use xlink:href="#mcb3312d7b7" x="260.755041" y="53.595124" style="fill: #1f77b4; stroke: #1f77b4"/>
     <use xlink:href="#mcb3312d7b7" x="264.03438" y="53.649372" style="fill: #1f77b4; stroke: #1f77b4"/>
     <use xlink:href="#mcb3312d7b7" x="267.313719" y="53.676496" style="fill: #1f77b4; stroke: #1f77b4"/>
     <use xlink:href="#mcb3312d7b7" x="270.593058" y="53.568" style="fill: #1f77b4; stroke: #1f77b4"/>
     <use xlink:href="#mcb3312d7b7" x="273.872397" y="53.676496" style="fill: #1f77b4; stroke: #1f77b4"/>
     <use xlink:href="#mcb3312d7b7" x="277.151736" y="53.676496" style="fill: #1f77b4; stroke: #1f77b4"/>
     <use xlink:href="#mcb3312d7b7" x="280.431074" y="53.622248" style="fill: #1f77b4; stroke: #1f77b4"/>
     <use xlink:href="#mcb3312d7b7" x="283.710413" y="53.622248" style="fill: #1f77b4; stroke: #1f77b4"/>
     <use xlink:href="#mcb3312d7b7" x="286.989752" y="53.595124" style="fill: #1f77b4; stroke: #1f77b4"/>
     <use xlink:href="#mcb3312d7b7" x="290.269091" y="53.622248" style="fill: #1f77b4; stroke: #1f77b4"/>
     <use xlink:href="#mcb3312d7b7" x="293.54843" y="53.649372" style="fill: #1f77b4; stroke: #1f77b4"/>
     <use xlink:href="#mcb3312d7b7" x="296.827769" y="53.595124" style="fill: #1f77b4; stroke: #1f77b4"/>
     <use xlink:href="#mcb3312d7b7" x="300.107107" y="53.595124" style="fill: #1f77b4; stroke: #1f77b4"/>
     <use xlink:href="#mcb3312d7b7" x="303.386446" y="53.649372" style="fill: #1f77b4; stroke: #1f77b4"/>
     <use xlink:href="#mcb3312d7b7" x="306.665785" y="53.622248" style="fill: #1f77b4; stroke: #1f77b4"/>
     <use xlink:href="#mcb3312d7b7" x="309.945124" y="53.622248" style="fill: #1f77b4; stroke: #1f77b4"/>
     <use xlink:href="#mcb3312d7b7" x="313.224463" y="53.622248" style="fill: #1f77b4; stroke: #1f77b4"/>
     <use xlink:href="#mcb3312d7b7" x="316.503802" y="53.622248" style="fill: #1f77b4; stroke: #1f77b4"/>
     <use xlink:href="#mcb3312d7b7" x="319.78314" y="53.622248" style="fill: #1f77b4; stroke: #1f77b4"/>
     <use xlink:href="#mcb3312d7b7" x="323.062479" y="53.622248" style="fill: #1f77b4; stroke: #1f77b4"/>
     <use xlink:href="#mcb3312d7b7" x="326.341818" y="53.622248" style="fill: #1f77b4; stroke: #1f77b4"/>
     <use xlink:href="#mcb3312d7b7" x="329.621157" y="53.622248" style="fill: #1f77b4; stroke: #1f77b4"/>
     <use xlink:href="#mcb3312d7b7" x="332.900496" y="53.622248" style="fill: #1f77b4; stroke: #1f77b4"/>
     <use xlink:href="#mcb3312d7b7" x="336.179835" y="53.622248" style="fill: #1f77b4; stroke: #1f77b4"/>
     <use xlink:href="#mcb3312d7b7" x="339.459174" y="53.622248" style="fill: #1f77b4; stroke: #1f77b4"/>
     <use xlink:href="#mcb3312d7b7" x="342.738512" y="53.622248" style="fill: #1f77b4; stroke: #1f77b4"/>
     <use xlink:href="#mcb3312d7b7" x="346.017851" y="53.622248" style="fill: #1f77b4; stroke: #1f77b4"/>
     <use xlink:href="#mcb3312d7b7" x="349.29719" y="53.622248" style="fill: #1f77b4; stroke: #1f77b4"/>
     <use xlink:href="#mcb3312d7b7" x="352.576529" y="53.622248" style="fill: #1f77b4; stroke: #1f77b4"/>
     <use xlink:href="#mcb3312d7b7" x="355.855868" y="53.622248" style="fill: #1f77b4; stroke: #1f77b4"/>
     <use xlink:href="#mcb3312d7b7" x="359.135207" y="53.622248" style="fill: #1f77b4; stroke: #1f77b4"/>
     <use xlink:href="#mcb3312d7b7" x="362.414545" y="53.622248" style="fill: #1f77b4; stroke: #1f77b4"/>
     <use xlink:href="#mcb3312d7b7" x="365.693884" y="53.622248" style="fill: #1f77b4; stroke: #1f77b4"/>
     <use xlink:href="#mcb3312d7b7" x="368.973223" y="53.622248" style="fill: #1f77b4; stroke: #1f77b4"/>
     <use xlink:href="#mcb3312d7b7" x="372.252562" y="53.622248" style="fill: #1f77b4; stroke: #1f77b4"/>
     <use xlink:href="#mcb3312d7b7" x="375.531901" y="53.622248" style="fill: #1f77b4; stroke: #1f77b4"/>
     <use xlink:href="#mcb3312d7b7" x="378.81124" y="53.622248" style="fill: #1f77b4; stroke: #1f77b4"/>
     <use xlink:href="#mcb3312d7b7" x="382.090579" y="53.622248" style="fill: #1f77b4; stroke: #1f77b4"/>
     <use xlink:href="#mcb3312d7b7" x="385.369917" y="53.622248" style="fill: #1f77b4; stroke: #1f77b4"/>
     <use xlink:href="#mcb3312d7b7" x="388.649256" y="53.622248" style="fill: #1f77b4; stroke: #1f77b4"/>
     <use xlink:href="#mcb3312d7b7" x="391.928595" y="53.622248" style="fill: #1f77b4; stroke: #1f77b4"/>
     <use xlink:href="#mcb3312d7b7" x="395.207934" y="53.622248" style="fill: #1f77b4; stroke: #1f77b4"/>
     <use xlink:href="#mcb3312d7b7" x="398.487273" y="53.622248" style="fill: #1f77b4; stroke: #1f77b4"/>
    </g>
   </g>
   <g id="line2d_72">
    <path d="M 57.6 295.488 
L 414.72 295.488 
" clip-path="url(#p2651b96ce2)" style="fill: none; stroke-dasharray: 5.55,2.4; stroke-dashoffset: 0; stroke: #ff0000; stroke-width: 1.5"/>
   </g>
   <g id="patch_3">
    <path d="M 57.6 307.584 
L 57.6 41.472 
" style="fill: none; stroke: #000000; stroke-width: 0.8; stroke-linejoin: miter; stroke-linecap: square"/>
   </g>
   <g id="patch_4">
    <path d="M 414.72 307.584 
L 414.72 41.472 
" style="fill: none; stroke: #000000; stroke-width: 0.8; stroke-linejoin: miter; stroke-linecap: square"/>
   </g>
   <g id="patch_5">
    <path d="M 57.6 307.584 
L 414.72 307.584 
" style="fill: none; stroke: #000000; stroke-width: 0.8; stroke-linejoin: miter; stroke-linecap: square"/>
   </g>
   <g id="patch_6">
    <path d="M 57.6 41.472 
L 414.72 41.472 
" style="fill: none; stroke: #000000; stroke-width: 0.8; stroke-linejoin: miter; stroke-linecap: square"/>
   </g>
   <g id="text_12">
    <!-- Accuracy vs. Fraction of weights kept -->
    <g transform="translate(124.448437 35.472) scale(0.12 -0.12)">
     <defs>
      <path id="DejaVuSans-76" d="M 191 3500 
L 800 3500 
L 1894 563 
L 2988 3500 
L 3597 3500 
L 2284 0 
L 1503 0 
L 191 3500 
z
" transform="scale(0.015625)"/>
      <path id="DejaVuSans-2e" d="M 684 794 
L 1344 794 
L 1344 0 
L 684 0 
L 684 794 
z
" transform="scale(0.015625)"/>
     </defs>
     <use xlink:href="#DejaVuSans-41"/>
     <use xlink:href="#DejaVuSans-63" x="66.658203"/>
     <use xlink:href="#DejaVuSans-63" x="121.638672"/>
     <use xlink:href="#DejaVuSans-75" x="176.619141"/>
     <use xlink:href="#DejaVuSans-72" x="239.998047"/>
     <use xlink:href="#DejaVuSans-61" x="281.111328"/>
     <use xlink:href="#DejaVuSans-63" x="342.390625"/>
     <use xlink:href="#DejaVuSans-79" x="397.371094"/>
     <use xlink:href="#DejaVuSans-20" x="456.550781"/>
     <use xlink:href="#DejaVuSans-76" x="488.337891"/>
     <use xlink:href="#DejaVuSans-73" x="547.517578"/>
     <use xlink:href="#DejaVuSans-2e" x="599.617188"/>
     <use xlink:href="#DejaVuSans-20" x="631.404297"/>
     <use xlink:href="#DejaVuSans-46" x="663.191406"/>
     <use xlink:href="#DejaVuSans-72" x="713.460938"/>
     <use xlink:href="#DejaVuSans-61" x="754.574219"/>
     <use xlink:href="#DejaVuSans-63" x="815.853516"/>
     <use xlink:href="#DejaVuSans-74" x="870.833984"/>
     <use xlink:href="#DejaVuSans-69" x="910.042969"/>
     <use xlink:href="#DejaVuSans-6f" x="937.826172"/>
     <use xlink:href="#DejaVuSans-6e" x="999.007812"/>
     <use xlink:href="#DejaVuSans-20" x="1062.386719"/>
     <use xlink:href="#DejaVuSans-6f" x="1094.173828"/>
     <use xlink:href="#DejaVuSans-66" x="1155.355469"/>
     <use xlink:href="#DejaVuSans-20" x="1190.560547"/>
     <use xlink:href="#DejaVuSans-77" x="1222.347656"/>
     <use xlink:href="#DejaVuSans-65" x="1304.134766"/>
     <use xlink:href="#DejaVuSans-69" x="1365.658203"/>
     <use xlink:href="#DejaVuSans-67" x="1393.441406"/>
     <use xlink:href="#DejaVuSans-68" x="1456.917969"/>
     <use xlink:href="#DejaVuSans-74" x="1520.296875"/>
     <use xlink:href="#DejaVuSans-73" x="1559.505859"/>
     <use xlink:href="#DejaVuSans-20" x="1611.605469"/>
     <use xlink:href="#DejaVuSans-6b" x="1643.392578"/>
     <use xlink:href="#DejaVuSans-65" x="1697.677734"/>
     <use xlink:href="#DejaVuSans-70" x="1759.201172"/>
     <use xlink:href="#DejaVuSans-74" x="1822.677734"/>
    </g>
   </g>
  </g>
 </g>
 <defs>
  <clipPath id="p2651b96ce2">
   <rect x="57.6" y="41.472" width="357.12" height="266.112"/>
  </clipPath>
 </defs>
</svg>
